<mxfile host="app.diagrams.net" modified="2023-10-14T18:57:50.724Z" agent="Mozilla/5.0 (Windows NT 10.0; Win64; x64) AppleWebKit/537.36 (KHTML, like Gecko) Chrome/117.0.0.0 Safari/537.36" etag="lSv-nDfTdOEV-wpuxcuE" version="21.2.3" type="device">
  <diagram name="Page-1" id="nfXygMZLZGliRKI-h5l9">
    <mxGraphModel dx="1290" dy="534" grid="1" gridSize="10" guides="1" tooltips="1" connect="1" arrows="1" fold="1" page="1" pageScale="1" pageWidth="850" pageHeight="1100" math="0" shadow="0">
      <root>
        <mxCell id="0" />
        <mxCell id="1" parent="0" />
        <mxCell id="tY_TdzT1sP6oqF3uGvmp-1" value="" style="shape=flexArrow;endArrow=classic;html=1;rounded=0;fillColor=#E6E6E6;" edge="1" parent="1">
          <mxGeometry width="50" height="50" relative="1" as="geometry">
            <mxPoint x="25" y="280" as="sourcePoint" />
            <mxPoint x="760" y="280" as="targetPoint" />
          </mxGeometry>
        </mxCell>
        <mxCell id="tY_TdzT1sP6oqF3uGvmp-2" value="" style="shape=callout;whiteSpace=wrap;html=1;perimeter=calloutPerimeter;rotation=-180;fillColor=#CCFFFF;" vertex="1" parent="1">
          <mxGeometry x="40" y="290" width="120" height="80" as="geometry" />
        </mxCell>
        <mxCell id="tY_TdzT1sP6oqF3uGvmp-3" value="" style="shape=callout;whiteSpace=wrap;html=1;perimeter=calloutPerimeter;fillColor=#CCFFFF;" vertex="1" parent="1">
          <mxGeometry x="120" y="190" width="120" height="80" as="geometry" />
        </mxCell>
        <mxCell id="tY_TdzT1sP6oqF3uGvmp-4" value="" style="shape=callout;whiteSpace=wrap;html=1;perimeter=calloutPerimeter;rotation=-180;fillColor=#CCFFFF;" vertex="1" parent="1">
          <mxGeometry x="200" y="290" width="120" height="80" as="geometry" />
        </mxCell>
        <mxCell id="tY_TdzT1sP6oqF3uGvmp-5" value="" style="shape=callout;whiteSpace=wrap;html=1;perimeter=calloutPerimeter;rotation=-180;fillColor=#CCFFFF;" vertex="1" parent="1">
          <mxGeometry x="360" y="290" width="120" height="80" as="geometry" />
        </mxCell>
        <mxCell id="tY_TdzT1sP6oqF3uGvmp-6" value="" style="shape=callout;whiteSpace=wrap;html=1;perimeter=calloutPerimeter;rotation=-180;fillColor=#CCFFFF;" vertex="1" parent="1">
          <mxGeometry x="520" y="290" width="120" height="80" as="geometry" />
        </mxCell>
        <mxCell id="tY_TdzT1sP6oqF3uGvmp-8" value="" style="shape=callout;whiteSpace=wrap;html=1;perimeter=calloutPerimeter;fillColor=#CCFFFF;" vertex="1" parent="1">
          <mxGeometry x="280" y="190" width="120" height="80" as="geometry" />
        </mxCell>
        <mxCell id="tY_TdzT1sP6oqF3uGvmp-9" value="" style="shape=callout;whiteSpace=wrap;html=1;perimeter=calloutPerimeter;fillColor=#CCFFFF;" vertex="1" parent="1">
          <mxGeometry x="440" y="190" width="120" height="80" as="geometry" />
        </mxCell>
        <mxCell id="tY_TdzT1sP6oqF3uGvmp-10" value="" style="shape=callout;whiteSpace=wrap;html=1;perimeter=calloutPerimeter;fillColor=#CCFFFF;" vertex="1" parent="1">
          <mxGeometry x="600" y="190" width="120" height="80" as="geometry" />
        </mxCell>
        <mxCell id="tY_TdzT1sP6oqF3uGvmp-12" value="Playstyles" style="text;html=1;strokeColor=none;fillColor=none;align=center;verticalAlign=middle;whiteSpace=wrap;rounded=0;" vertex="1" parent="1">
          <mxGeometry x="120" y="190" width="120" height="50" as="geometry" />
        </mxCell>
        <mxCell id="tY_TdzT1sP6oqF3uGvmp-13" value="User Profiles" style="text;html=1;strokeColor=none;fillColor=none;align=center;verticalAlign=middle;whiteSpace=wrap;rounded=0;" vertex="1" parent="1">
          <mxGeometry x="280" y="190" width="120" height="50" as="geometry" />
        </mxCell>
        <mxCell id="tY_TdzT1sP6oqF3uGvmp-14" value="Profile &amp;amp; Post Awards" style="text;html=1;strokeColor=none;fillColor=none;align=center;verticalAlign=middle;whiteSpace=wrap;rounded=0;" vertex="1" parent="1">
          <mxGeometry x="440" y="190" width="120" height="50" as="geometry" />
        </mxCell>
        <mxCell id="tY_TdzT1sP6oqF3uGvmp-15" value="Hire Coaches" style="text;html=1;strokeColor=none;fillColor=none;align=center;verticalAlign=middle;whiteSpace=wrap;rounded=0;" vertex="1" parent="1">
          <mxGeometry x="600" y="190" width="120" height="50" as="geometry" />
        </mxCell>
        <mxCell id="tY_TdzT1sP6oqF3uGvmp-16" value="List of Controls" style="text;html=1;strokeColor=none;fillColor=none;align=center;verticalAlign=middle;whiteSpace=wrap;rounded=0;" vertex="1" parent="1">
          <mxGeometry x="40" y="320" width="120" height="50" as="geometry" />
        </mxCell>
        <mxCell id="tY_TdzT1sP6oqF3uGvmp-17" value="Game News" style="text;html=1;strokeColor=none;fillColor=none;align=center;verticalAlign=middle;whiteSpace=wrap;rounded=0;" vertex="1" parent="1">
          <mxGeometry x="200" y="320" width="120" height="50" as="geometry" />
        </mxCell>
        <mxCell id="tY_TdzT1sP6oqF3uGvmp-18" value="User Generated Content" style="text;html=1;strokeColor=none;fillColor=none;align=center;verticalAlign=middle;whiteSpace=wrap;rounded=0;" vertex="1" parent="1">
          <mxGeometry x="360" y="320" width="120" height="50" as="geometry" />
        </mxCell>
        <mxCell id="tY_TdzT1sP6oqF3uGvmp-19" value="Professional Articles" style="text;html=1;strokeColor=none;fillColor=none;align=center;verticalAlign=middle;whiteSpace=wrap;rounded=0;" vertex="1" parent="1">
          <mxGeometry x="520" y="320" width="120" height="50" as="geometry" />
        </mxCell>
      </root>
    </mxGraphModel>
  </diagram>
</mxfile>
